<svg width="250" height="250" viewBox="0 0 250 250" fill="none" xmlns="http://www.w3.org/2000/svg">
<rect width="250" height="250" fill="#0064A4"/>
<path d="M30 130.152V86.4595H51.8007V129.696C51.8007 140.916 57.4561 146.297 66.1216 146.297C74.8784 146.297 80.5338 141.189 80.5338 130.335V86.5507H102.334V129.696C102.334 154.689 88.0135 165.818 65.848 165.818C43.8649 165.726 30 154.507 30 130.152Z" fill="white"/>
<path d="M112.825 125.591V125.409C112.825 102.696 130.156 85 153.69 85C169.561 85 179.777 91.6588 186.71 101.145L170.473 113.733C166.004 108.26 160.896 104.611 153.507 104.611C142.652 104.611 134.99 113.916 134.99 125.318V125.5C134.99 137.176 142.652 146.297 153.507 146.297C161.625 146.297 166.369 142.557 171.021 136.902L187.257 148.486C179.96 158.611 170.017 166 152.96 166C130.703 165.818 112.825 148.851 112.825 125.591Z" fill="white"/>
<path d="M199.388 86.4595H220.915V164.267H199.388V86.4595Z" fill="white"/>
</svg>
